<svg width="20" height="20" fill="none" xmlns="http://www.w3.org/2000/svg"><g clip-path="url(#a)"><path d="M14.254 5.194a.586.586 0 0 0-1.087.303c0 .715-.582 1.297-1.297 1.297a1.298 1.298 0 0 1-1.297-1.297V.586a.586.586 0 0 0-1-.414c-.066.065-1.629 1.637-3.211 4.012-.934 1.4-1.679 2.788-2.215 4.127-.678 1.697-1.022 3.32-1.022 4.827A6.87 6.87 0 0 0 9.987 20a6.87 6.87 0 0 0 6.862-6.862c0-2.422-.873-5.095-2.595-7.944Zm-.357 7.792a.586.586 0 1 1-1.172 0V11.89l-2.918 2.918a.586.586 0 0 1-.828 0l-1.361-1.361-.917.917a.586.586 0 1 1-.829-.829l1.332-1.331a.586.586 0 0 1 .828 0l1.361 1.36 2.503-2.503H10.8a.586.586 0 1 1 0-1.172h2.511c.323 0 .586.263.586.586v2.51Z" fill="#D9D9D9"/></g><defs><clipPath id="a"><path fill="#fff" d="M0 0h20v20H0z"/></clipPath></defs></svg>