<svg width="14" height="14" fill="none" xmlns="http://www.w3.org/2000/svg"><g clip-path="url(#a)"><path d="m13.98 13.461-.683-2.068a1.232 1.232 0 0 0-.117-2.271v-4.74l.592-.296a.41.41 0 0 0 .002-.734L7.184.045a.41.41 0 0 0-.368 0L.226 3.352a.41.41 0 0 0 .001.734l2.234 1.112v2.623c0 .117.05.23.14.307C2.68 8.2 4.606 9.871 7 9.871c2.392 0 4.319-1.671 4.4-1.743a.41.41 0 0 0 .139-.307V5.198l.82-.408v4.332a1.232 1.232 0 0 0-.118 2.271l-.681 2.068a.41.41 0 0 0 .389.54h1.64a.41.41 0 0 0 .39-.54Zm-3.261-5.836c-.457.356-1.978 1.426-3.72 1.426-1.74 0-3.262-1.07-3.718-1.426V5.607l3.536 1.76a.41.41 0 0 0 .366 0l3.536-1.76v2.018Zm1.797 5.555.253-.768.254.768h-.507Zm.253-2.488a.41.41 0 1 1 .001-.822.41.41 0 0 1 0 .822Z" fill="#52BFFF"/></g><defs><clipPath id="a"><path fill="#fff" d="M0 0h14v14H0z"/></clipPath></defs></svg>