<svg width="20" height="20" fill="none" xmlns="http://www.w3.org/2000/svg"><path d="m19.97 19.23-.974-2.955A1.76 1.76 0 0 0 20 14.688a1.76 1.76 0 0 0-1.172-1.657V6.259l.847-.422a.586.586 0 0 0 .002-1.048L10.263.063a.586.586 0 0 0-.526 0L.323 4.789a.586.586 0 0 0 .002 1.048l3.19 1.59v3.745c0 .168.073.329.2.44.115.101 2.867 2.49 6.285 2.49s6.17-2.389 6.285-2.49a.586.586 0 0 0 .2-.44V7.426l1.17-.583v6.188a1.76 1.76 0 0 0-1.17 1.657c0 .7.41 1.304 1.003 1.587l-.974 2.956c-.125.379.158.769.556.769h2.344c.399 0 .68-.391.556-.77Zm-4.658-8.337c-.652.508-2.825 2.037-5.312 2.037-2.488 0-4.66-1.53-5.313-2.037V8.01l5.052 2.515a.585.585 0 0 0 .522 0l5.051-2.515v2.883Zm2.568 7.935.362-1.097.362 1.097h-.724Zm.362-3.554a.587.587 0 1 1 .001-1.174.587.587 0 0 1-.001 1.174Z" fill="#52BFFF"/></svg>