<svg width="38" height="38" fill="none" xmlns="http://www.w3.org/2000/svg"><rect width="38" height="38" rx="19" fill="url(#a)"/><path d="M19 12a7 7 0 0 0-7 7c0 1.197.311 2.364.902 3.406l-.855 2.567a.782.782 0 0 0 .186.793c.231.208.518.297.794.187l2.566-.856a6.888 6.888 0 0 0 3.407.902 7 7 0 0 0 7-7C26 15.128 22.873 12 19 12Zm-3.111 7.777A.79.79 0 0 1 15.11 19a.78.78 0 0 1 .778-.778.77.77 0 0 1 .778.778.78.78 0 0 1-.778.777Zm3.111 0a.79.79 0 0 1-.778-.777.78.78 0 0 1 .778-.778.77.77 0 0 1 .778.778.78.78 0 0 1-.778.777Zm3.111 0a.79.79 0 0 1-.778-.777.78.78 0 0 1 .778-.778.77.77 0 0 1 .778.778.78.78 0 0 1-.778.777Z" fill="#fff"/><defs><linearGradient id="a" x1="48.5" y1="-36" x2="-23" y2="70.5" gradientUnits="userSpaceOnUse"><stop stop-color="#B1E2FF"/><stop offset="1" stop-color="#68C7FF"/></linearGradient></defs></svg>