<svg  viewBox="0 0 52 52" xmlns="http://www.w3.org/2000/svg"
     xmlns:xlink="http://www.w3.org/1999/xlink">
    <g id="g1">
        <linearGradient id="linearGradient1" x1="63.263" y1="-43.47369" x2="-27.0526" y2="91.053"
                        gradientUnits="userSpaceOnUse">
            <stop offset="1e-05" stop-color="#b1e2ff" stop-opacity="1"/>
            <stop offset="1" stop-color="#68c7ff" stop-opacity="1"/>
        </linearGradient>
        <linearGradient id="linearGradient2" x1="26" y1="2" x2="26" y2="50" gradientUnits="userSpaceOnUse">
            <stop offset="1e-05" stop-color="#bee7ff" stop-opacity="1"/>
            <stop offset="1" stop-color="#52bfff" stop-opacity="1"/>
        </linearGradient>
        <path id="path1" fill="url(#linearGradient1)" stroke="url(#linearGradient2)" stroke-width="1.5"
              stroke-linecap="round" stroke-linejoin="round"
              d="M 26 1.25 L 26 1.25 C 39.669044 1.25 50.75 12.330948 50.75 26 L 50.75 26 C 50.75 39.669044 39.669044 50.75 26 50.75 L 26 50.75 C 12.330952 50.75 1.25 39.669044 1.25 26 L 1.25 26 C 1.25 12.330948 12.330952 1.25 26 1.25 Z"/>
        <linearGradient id="linearGradient3" x1="7" y1="49.5" x2="38.5" y2="9" gradientUnits="userSpaceOnUse">
            <stop offset="0.082217" stop-color="#b1e2ff" stop-opacity="1"/>
            <stop offset="1" stop-color="#68c7ff" stop-opacity="1"/>
        </linearGradient>
        <path id="path2" fill="url(#linearGradient3)" stroke="none"
              d="M 26 7 L 26 7 C 15.506592 7 7 15.506592 7 26 L 7 26 C 7 36.493408 15.506592 45 26 45 L 26 45 C 36.493408 45 45 36.493408 45 26 L 45 26 C 45 15.506592 36.493408 7 26 7 Z"/>
        <path id="path3" fill="none" stroke="#ffffff" stroke-width="3" stroke-linecap="round" stroke-linejoin="round"
              d="M 26 21 L 26 31 M 21 26 L 31 26"/>
    </g>
</svg>
