<svg width="14" height="14" fill="none" xmlns="http://www.w3.org/2000/svg"><g clip-path="url(#a)"><path d="m13.622 6.09-.001-.002L7.91.378A1.28 1.28 0 0 0 6.998 0a1.28 1.28 0 0 0-.911.378L.379 6.085l-.006.006a1.29 1.29 0 0 0 .898 2.198h.227v4.203A1.51 1.51 0 0 0 3.007 14H5.24a.41.41 0 0 0 .41-.41v-3.295c0-.38.309-.688.688-.688h1.318c.38 0 .688.308.688.688v3.295c0 .226.184.41.41.41h2.235a1.51 1.51 0 0 0 1.508-1.508V8.289h.212a1.29 1.29 0 0 0 .912-2.2Z" fill="#52BFFF"/></g><defs><clipPath id="a"><path fill="#fff" d="M0 0h14v14H0z"/></clipPath></defs></svg>