<svg width="14" height="14" fill="none" xmlns="http://www.w3.org/2000/svg"><path d="M.383 5.923C.135 5.253-.044 4.57.01 3.843a1.7 1.7 0 0 1 .53-1.142c.356-.336.692-.69 1.042-1.031.456-.45 1.029-.447 1.484 0 .282.276.562.558.84.84.271.27.545.541.816.815.475.481.478 1.043.002 1.521-.341.342-.68.687-1.028 1.023-.091.088-.1.162-.051.273.228.547.558 1.034.928 1.49.747.918 1.59 1.732 2.596 2.362.216.134.453.234.678.356.116.063.193.043.287-.054.34-.35.687-.695 1.035-1.04.455-.45 1.025-.453 1.48 0a226.91 226.91 0 0 1 1.667 1.667c.465.467.462 1.04-.005 1.51-.316.319-.65.62-.946.954-.433.484-.98.644-1.601.61-.906-.049-1.74-.35-2.547-.741A13.859 13.859 0 0 1 2.622 9.66C1.676 8.533.896 7.308.382 5.923Zm12.982 1.02c.366 0 .667-.298.632-.663A6.985 6.985 0 0 0 7.721.003c-.365-.034-.663.266-.663.633 0 .366.298.66.662.702a5.656 5.656 0 0 1 4.942 4.942c.043.364.336.663.703.663Zm-3.222-.66c.075.36.365.66.732.66s.669-.299.615-.662a4.494 4.494 0 0 0-3.77-3.77c-.364-.054-.662.248-.662.615 0 .366.3.656.659.732a3.13 3.13 0 0 1 1.571.854c.437.437.73.98.855 1.572Z" fill="#BED8E8"/></svg>