<svg width="20" height="16" fill="none" xmlns="http://www.w3.org/2000/svg"><path d="M3.06.36h-.002a.713.713 0 0 0-.712.716v10.732c0 .393.321.714.716.715 1.666.004 4.457.351 6.383 2.366V3.66a.686.686 0 0 0-.099-.363C7.766.75 4.73.364 3.06.36ZM17.654 11.808V1.076a.713.713 0 0 0-.712-.716h-.001c-1.67.004-4.707.39-6.287 2.936a.686.686 0 0 0-.098.362V14.89c1.925-2.015 4.716-2.362 6.382-2.366a.718.718 0 0 0 .716-.715Z" fill="#52BFFF"/><path d="M19.285 2.835h-.52v8.973a1.831 1.831 0 0 1-1.824 1.826c-1.413.004-3.743.28-5.393 1.842 2.854-.7 5.862-.245 7.576.146a.714.714 0 0 0 .876-.697V3.55a.716.716 0 0 0-.715-.716ZM1.234 11.808V2.835H.716A.716.716 0 0 0 0 3.551v11.373a.714.714 0 0 0 .876.697c1.714-.39 4.723-.844 7.576-.146-1.65-1.561-3.98-1.838-5.393-1.84a1.831 1.831 0 0 1-1.825-1.827Z" fill="#52BFFF"/></svg>