<svg xmlns="http://www.w3.org/2000/svg" viewBox="0 0 503.046 503.046" xml:space="preserve"><path transform="rotate(134.999 245.815 268.496)" style="fill:#e2e3e5" d="M-70.712 252.729h632.464v30.117H-70.712z"/><path transform="rotate(134.999 245.815 268.496)" style="fill:#e2e3e5" d="M230.461-48.444h30.117V584.02h-30.117z"/><path style="fill:#b6b6b6" d="M27.478 476.365c-4.518 0-7.529-1.506-10.541-4.518-6.024-6.024-6.024-15.059 0-21.082L464.184 3.518c6.024-6.024 15.059-6.024 21.082 0 6.023 6.024 6.023 15.059 0 21.082L38.019 471.847c-3.012 3.012-6.023 4.518-10.541 4.518z" transform="translate(1 1)"/><path style="fill:#b6b6b6" d="M474.725 476.365c-4.518 0-7.529-1.506-10.541-4.518L16.937 24.6c-6.024-6.024-6.024-15.059 0-21.082s15.059-6.024 21.082 0l447.247 447.247c6.023 6.024 6.023 15.059 0 21.082-3.011 3.012-6.023 4.518-10.541 4.518z" transform="translate(1 1)"/></svg>