<svg width="16" height="16" viewBox="0 0 16 16" fill="none" xmlns="http://www.w3.org/2000/svg">
<path d="M8.00024 0C12.4116 0 16.0002 3.58866 16.0002 8C16.0002 12.4113 12.4116 16 8.00024 16C3.5889 16 0.000244141 12.4113 0.000244141 8C0.000244141 3.58866 3.5889 0 8.00024 0ZM7.33359 8C7.33359 8.36866 7.63159 8.66666 8.00024 8.66666H10.6669C11.0356 8.66666 11.3336 8.36866 11.3336 8C11.3336 7.63134 11.0356 7.33334 10.6669 7.33334H8.6669V3.33334C8.6669 2.96469 8.3689 2.66669 8.00024 2.66669C7.63159 2.66669 7.33359 2.96469 7.33359 3.33334V8Z" fill="#52BFFF"/>
</svg>
